<?xml version="1.0" encoding="UTF-8"?>
<!-- Generator: Adobe Illustrator 16.0.3, SVG Export Plug-In . SVG Version: 6.00 Build 0)  -->
<!DOCTYPE svg PUBLIC "-//W3C//DTD SVG 1.1//EN" "http://www.w3.org/Graphics/SVG/1.1/DTD/svg11.dtd">
<svg version="1.1" id="Layer_1" xmlns="http://www.w3.org/2000/svg" xmlns:xlink="http://www.w3.org/1999/xlink" x="0px" y="0px" width="269.136px" height="254.001px" viewBox="0 0 269.136 254.001" enable-background="new 0 0 269.136 254.001" xml:space="preserve">
<g>
	<g>
		<rect x="124" y="212.473" fill="#A7B6BF" width="22" height="21"/>
		<rect x="124" y="21.473" fill="#A7B6BF" width="22" height="21"/>
		<path fill="#A7B6BF" d="M146,138.473h-22v-22h22V138.473z M248.411,162.431c-8.183-18-26.558-20.625-38.058-28.125    c-5.506-3.59-7.735-10.797-8.61-16.822c-5.419,0.564-14.441,0.645-18.751-10.311c-3.389-8.616-1.984-22.893-13.325-34.991    c-10.313-11-23-14.625-34.642-13.808c14.267,9.539,8.642,23.92-1.718,23.92c-14.421,0-18.454-17.368-39.561-17.368    c-4.829,0-9.083,1.508-11.737,3.262c11.821,1.493,14.65,11.186,18.345,19.959c2.937,6.972,8.187,11.035,15.874,13.16    c-1.388,0.799-4.706,1.78-8.996,1.78c-9.323,0-15.816-4.905-22.492-11.784c-5.875-6.052-12.428-11.788-23.416-11.788    c-5.405,0-9.544,1.712-10.977,2.677c6.032,0.95,14.941,4.546,14.941,10.927c0,5.455-6.034,7.543-10.978,2.321    c-5.505-5.813-13.233-10.21-22.076-10.21c-4.369,0-8.738,1.393-10.595,3.2c10.481,1.209,16.689,7.938,23.178,22.944    c3.662,8.471,8.878,16.479,22.011,16.629c5.977,0.072,14.463-2.771,19.445,2.01c4.714,4.527,3.131,10.461,5.289,15.273    c2.713,6.049,8.338,9.166,19.338,9.74c-9.125,7.635-30.938,3.053-38.366-4.748c0.976,19.531,16.383,37.051,46.966,28.812    c5.316-1.432,9.107-0.621,11.154,4.758c2.807,7.385,9.459,8.609,15.745,7.828c14.375-1.779,22.906,1.115,31.181,10.998    c1.808-16.352-9.884-25.963-17.228-30.557c-6.995-4.375-7.679-8.924-7.766-12.447c5.062,5.791,11.66,8.244,18.524,9.211    c11.866,1.67,20.366,4.979,24.866,11.342c1.313-17.98-17.562-22.043-19.875-29.605c5.938,3.875,10.315,5.283,16.5,4.812    c8.25-0.625,18.281-7.102,25.681,5.576C227.729,154.868,240.104,157.056,248.411,162.431"/>
	</g>
</g>
</svg>